<svg fill="#e9113c" viewBox="0 0 64 64" class="svg-icon " style=""
    xmlns="http://www.w3.org/2000/svg"
    xmlns:xlink="http://www.w3.org/1999/xlink">
    <title></title>
    <path fill-rule="evenodd" clip-rule="evenodd"
        d="m37.036 2.1 24.875 24.865a7.098 7.098 0 0 1 2.09 5.04c0 1.969-.799 3.75-2.09 5.04L37.034 61.909a7.076 7.076 0 0 1-5.018 2.078c-.086 0-.174 0-.25-.004v.004h-.01a7.067 7.067 0 0 1-4.79-2.072L2.089 37.05A7.098 7.098 0 0 1 0 32.009c0-1.97.798-3.75 2.09-5.04L26.965 2.102v.002A7.07 7.07 0 0 1 31.754.02l.002-.004h-.012c.088-.002.176-.004.264-.004A7.08 7.08 0 0 1 37.036 2.1Z"></path>
</svg>