<svg fill="none" viewBox="0 0 96 96" class="svg-icon" height="800px" width="800px" version="1.1"
    id="Layer_1" xmlns="http://www.w3.org/2000/svg"
    xmlns:xlink="http://www.w3.org/1999/xlink"
>
    <path d="M48 96c26.51 0 48-21.49 48-48S74.51 0 48 0 0 21.49 0 48s21.49 48 48 48" fill="#EAC749" />
    <path
        d="M66 29.2H54.36c2.28 1.84 3.84 4.28 4.48 7.12h7.12v5.8h-7c-.96 6.76-5.88 10.6-10.6 11.68l11.12 18.68H47.4l-9.64-17.44h-7.88v-8.4h11.24c3.6 0 6.24-1.76 7.28-4.56H30v-5.8h18.6c-1.04-2.88-3.68-4.48-7.36-4.48H30v-8.4h36.04v5.72z"
        fill="#276304" />
</svg>