<svg fill="#1a2c38" viewBox="0 0 64 64" class="svg-icon " style=""
    xmlns="http://www.w3.org/2000/svg"
    xmlns:xlink="http://www.w3.org/1999/xlink">
    <title></title>
    <path fill-rule="evenodd" clip-rule="evenodd"
        d="M63.256 30.626 33.082.452A1.526 1.526 0 0 0 31.994 0c-.024 0-.048 0-.072.002h.004v.002a1.53 1.53 0 0 0-1.034.45V.452L.741 30.604a1.54 1.54 0 0 0-.45 1.09c0 .426.172.81.45 1.09l14.002 14.002c.28.278.663.45 1.09.45.426 0 .81-.172 1.09-.45l13.97-13.97a1.53 1.53 0 0 1 1.031-.45h.002l.027-.001.031-.001c.424 0 .81.172 1.088.452l14.002 14.002c.28.278.664.45 1.09.45.426 0 .81-.172 1.09-.45l14.002-14.002a1.546 1.546 0 0 0 0-2.192v.002ZM45.663 64H18.185a.982.982 0 0 1-.692-1.678L31.23 48.587h-.002a.986.986 0 0 1 .694-.285h.002v.047l.01-.047a.98.98 0 0 1 .686.285l13.736 13.736A.982.982 0 0 1 45.663 64Z"></path>
</svg>